<svg width="248" height="135" viewBox="0 0 248 135" fill="none" xmlns="http://www.w3.org/2000/svg">
<path fill-rule="evenodd" clip-rule="evenodd" d="M2 0H0V2V26.5V28.5H2H19H21V26.5V17.5V15.5H19H12.5V12H26V32H0V36H28H30V34V10V8H28H10.5H8.5V10V17.5V19.5H10.5H17V24.5H4V4H34V36H38H70H72V34V10V8H70H52.5H50.5V10V17.5V19.5H52.5H59V24.5H46V4H76V36H80H112H114V34V10V8H112H94.5H92.5V10V17.5V19.5H94.5H101V24.5H88V4H118V36H122H154H156V34V10V8H154H136.5H134.5V10V17.5V19.5H136.5H143V24.5H130V4H160V36H164H196H198V34V10V8H196H178.5H176.5V10V17.5V19.5H178.5H185V24.5H172V4H202V36H206H238H240V34V10V8H238H220.5H218.5V10V17.5V19.5H220.5H227V24.5H214V4H244V36H248V2V0H246H212H210V2V26.5V28.5H212H229H231V26.5V17.5V15.5H229H222.5V12H236V32H206V2V0H204H170H168V2V26.5V28.5H170H187H189V26.5V17.5V15.5H187H180.5V12H194V32H164V2V0H162H128H126V2V26.5V28.5H128H145H147V26.5V17.5V15.5H145H138.5V12H152V32H122V2V0H120H86H84V2V26.5V28.5H86H103H105V26.5V17.5V15.5H103H96.5V12H110V32H80V2V0H78H44H42V2V26.5V28.5H44H61H63V26.5V17.5V15.5H61H54.5V12H68V32H38V2V0H36H2ZM0 99H2H36H38V101V131H68V111H54.5V114.5H61H63V116.5V125.5V127.5H61H44H42V125.5V101V99H44H78H80V101V131H110V111H96.5V114.5H103H105V116.5V125.5V127.5H103H86H84V125.5V101V99H86H120H122V101V131H152V111H138.5V114.5H145H147V116.5V125.5V127.5H145H128H126V125.5V101V99H128H162H164V101V131H194V111H180.5V114.5H187H189V116.5V125.5V127.5H187H170H168V125.5V101V99H170H204H206V101V131H236V111H222.5V114.5H229H231V116.5V125.5V127.5H229H212H210V125.5V101V99H212H246H248V101V135H244V103H214V123.5H227V118.5H220.5H218.5V116.5V109V107H220.5H238H240V109V133V135H238H206H202V103H172V123.5H185V118.5H178.5H176.5V116.5V109V107H178.5H196H198V109V133V135H196H164H160V103H130V123.5H143V118.5H136.5H134.5V116.5V109V107H136.5H154H156V109V133V135H154H122H118V103H88V123.5H101V118.5H94.5H92.5V116.5V109V107H94.5H112H114V109V133V135H112H80H76V103H46V123.5H59V118.5H52.5H50.5V116.5V109V107H52.5H70H72V109V133V135H70H38H34V103H4V123.5H17V118.5H10.5H8.5V116.5V109V107H10.5H28H30V109V133V135H28H0V131H26V111H12.5V114.5H19H21V116.5V125.5V127.5H19H2H0V125.5V101V99ZM25.5625 46.375C25.5625 45.6667 25.4167 45.0417 25.125 44.5C24.7917 44.4583 24.4792 44.3958 24.1875 44.3125C23.8958 44.1875 23.5833 44.125 23.25 44.125C23.0417 44.125 22.8542 44.1875 22.6875 44.3125C22.5208 44.3958 22.3542 44.4375 22.1875 44.4375C21.9375 44.4375 21.6667 44.4167 21.375 44.375L20.625 44.125C20.3333 44.0417 19.9792 43.9167 19.5625 43.75C19.1875 43.5833 18.8958 43.5 18.6875 43.5C18.4375 43.5 18.2083 43.6458 18 43.9375C17.7917 44.2292 17.5833 44.5625 17.375 44.9375C17.2083 45.3125 17.0625 45.6875 16.9375 46.0625C16.8125 46.4375 16.7292 46.7292 16.6875 46.9375C16.4792 47.7708 16.1667 48.4792 15.75 49.0625C15.375 49.6458 14.8958 50.2708 14.3125 50.9375C14.1042 51.1458 13.9375 51.375 13.8125 51.625C13.7292 51.8333 13.625 52.0833 13.5 52.375L12.875 53.375C12.7083 53.6667 12.5208 53.9792 12.3125 54.3125C11.6875 55.3542 11.0833 56.3958 10.5 57.4375C9.91667 58.4792 9.39583 59.5625 8.9375 60.6875C8.85417 60.7708 8.72917 60.9792 8.5625 61.3125C8.5625 61.6458 8.4375 61.875 8.1875 62C7.9375 62.125 7.8125 62.3333 7.8125 62.625C7.8125 62.75 7.83333 62.8958 7.875 63.0625C7.875 63.1875 7.8125 63.3125 7.6875 63.4375C7.89583 63.6458 8.14583 63.7708 8.4375 63.8125C8.72917 63.8542 8.97917 63.9792 9.1875 64.1875C9.39583 64.3125 9.52083 64.5 9.5625 64.75C9.60417 64.9583 9.6875 65.1458 9.8125 65.3125C9.89583 65.4792 10.0208 65.6042 10.1875 65.6875C10.3542 65.7708 10.4792 65.8958 10.5625 66.0625C10.7292 66.2708 10.8542 66.5 10.9375 66.75C11.0208 67 11.1458 67.1875 11.3125 67.3125C12.1875 68.0208 13 68.7083 13.75 69.375C14.9167 70.4583 16.0208 71.5208 17.0625 72.5625C18.1458 73.6042 19.2917 74.625 20.5 75.625C20.8333 75.9167 21 76.3542 21 76.9375C21 77.2292 20.9167 77.6042 20.75 78.0625C20.5833 78.4792 20.3958 78.9375 20.1875 79.4375C19.9792 79.9375 19.75 80.4167 19.5 80.875C19.25 81.3333 19.0625 81.7083 18.9375 82C18.7708 82.3333 18.5833 82.6458 18.375 82.9375C18.2083 83.2292 18.0625 83.5417 17.9375 83.875C17.4792 84.875 17 85.875 16.5 86.875C16 87.8333 15.6042 88.8542 15.3125 89.9375C15.4792 90.0208 15.6042 90.1667 15.6875 90.375C15.7708 90.5833 16.0625 90.8125 16.5625 91.0625C16.7708 91.1875 16.8958 91.3125 16.9375 91.4375C16.9792 91.6042 17.1458 91.6875 17.4375 91.6875C17.5625 91.6875 17.6875 91.6667 17.8125 91.625L18.1875 91.5C18.3542 91.5833 18.4792 91.7083 18.5625 91.875C18.6875 92.0417 18.8542 92.125 19.0625 92.125C19.1458 92.125 19.25 92.1042 19.375 92.0625C19.5417 92.0208 19.6667 92.0208 19.75 92.0625C19.9167 92.1458 20.0417 92.25 20.125 92.375C20.2083 92.5 20.3125 92.5625 20.4375 92.5625C20.7708 92.5625 21.2083 92.375 21.75 92C22.3333 91.6667 22.8125 91.4375 23.1875 91.3125C23.3958 90.5625 23.6667 89.8333 24 89.125C24.375 88.4167 24.6667 87.6875 24.875 86.9375C25.2083 86.8125 25.3958 86.6042 25.4375 86.3125C25.5208 86.0208 25.6042 85.7708 25.6875 85.5625C25.8125 85.2292 25.9583 84.8958 26.125 84.5625C26.3333 84.2292 26.5 83.8958 26.625 83.5625C26.7917 83.2292 26.9167 82.875 27 82.5C27.125 82.0833 27.2708 81.7292 27.4375 81.4375C27.5208 81.2708 27.625 81.1458 27.75 81.0625C27.9167 80.9792 28.0417 80.875 28.125 80.75C28.3333 80.4167 28.4583 80.0417 28.5 79.625C28.5833 79.2083 28.7292 78.7917 28.9375 78.375C29.1458 77.9167 29.3333 77.5417 29.5 77.25C29.7083 76.9167 29.8125 76.4167 29.8125 75.75C29.7292 75.5833 29.6458 75.4375 29.5625 75.3125C29.5208 75.1875 29.4583 75.0625 29.375 74.9375C29.4583 74.2292 29.3958 73.4792 29.1875 72.6875C28.9792 71.8958 28.5208 71.3958 27.8125 71.1875C27.0625 70.2292 26.2083 69.3958 25.25 68.6875C24.2917 67.9792 23.375 67.2292 22.5 66.4375C22.0417 65.9792 21.5833 65.5625 21.125 65.1875C20.7083 64.8125 20.2708 64.4375 19.8125 64.0625L19.1875 63.4375C19.0208 63.2292 18.8333 63.0208 18.625 62.8125C18.5 62.6875 18.2292 62.5 17.8125 62.25C17.4375 62 17.25 61.7917 17.25 61.625C17.25 61.4583 17.4167 61.0625 17.75 60.4375C18.0833 59.8125 18.4583 59.1667 18.875 58.5C19.3333 57.7917 19.7708 57.125 20.1875 56.5C20.6042 55.875 20.875 55.4583 21 55.25C21.2083 54.9583 21.375 54.6875 21.5 54.4375L21.875 53.5625L22.875 52.0625C23.25 51.5208 23.625 50.8333 24 50C24.5417 49.625 24.9375 49.0833 25.1875 48.375C25.4375 47.6667 25.5625 47 25.5625 46.375ZM63.875 67.125C63.9167 66.9583 63.9792 66.8125 64.0625 66.6875L64.3125 66.1875C64.1042 65.7292 63.875 65.3125 63.625 64.9375C63.4167 64.5208 63.0833 64 62.625 63.375C62.4583 63.2083 62.1458 62.8333 61.6875 62.25C61.2292 61.6667 60.75 61.0625 60.25 60.4375C59.7917 59.7708 59.3542 59.1458 58.9375 58.5625C58.5208 57.9792 58.25 57.5833 58.125 57.375C58 57.2917 57.7708 57.0208 57.4375 56.5625C57.1042 56.0625 56.7292 55.5208 56.3125 54.9375C55.8958 54.3542 55.5208 53.8125 55.1875 53.3125C54.8542 52.7708 54.625 52.3958 54.5 52.1875C54.0833 51.5208 53.625 50.9167 53.125 50.375C52.6667 49.7917 52.2083 49.1875 51.75 48.5625C51.4167 48.1042 51.0625 47.6042 50.6875 47.0625C50.3125 46.5208 49.9583 46.0208 49.625 45.5625C49.4167 45.4792 49.25 45.3542 49.125 45.1875C49.0417 45.0208 48.9167 44.8542 48.75 44.6875C48.5417 44.6042 48.3542 44.4792 48.1875 44.3125C48.0208 44.1458 47.7292 44.0625 47.3125 44.0625C46.9375 43.8125 46.6667 43.6667 46.5 43.625C46.3333 43.5833 46.0208 43.5208 45.5625 43.4375C45.4792 43.5208 45.375 43.6042 45.25 43.6875C45.125 43.7708 45.1042 44.0625 45.1875 44.5625C45.1875 44.6458 45.1042 44.7292 44.9375 44.8125C44.7708 44.8542 44.6458 44.8958 44.5625 44.9375C44.3542 45.2292 44.25 45.5625 44.25 45.9375C44 45.8958 43.8333 45.9792 43.75 46.1875C43.6667 46.3958 43.4792 46.5 43.1875 46.5L42.5625 47.625C42.3958 47.9583 42.1458 48.3958 41.8125 48.9375C41.6042 49.1458 41.4375 49.3958 41.3125 49.6875C41.1875 49.9792 41 50.2083 40.75 50.375C40.4583 51.0417 40.0625 51.5833 39.5625 52C39.3542 52.4583 39.125 52.8958 38.875 53.3125C38.6667 53.7292 38.3958 54.1042 38.0625 54.4375C37.9375 55.0625 37.6042 55.5625 37.0625 55.9375C37.0208 56.3125 36.8125 56.6458 36.4375 56.9375C36.3542 57.3958 36.1667 57.7917 35.875 58.125C35.5833 58.4167 35.3958 58.7917 35.3125 59.25C35.1042 59.4167 34.9375 59.6042 34.8125 59.8125C34.6875 59.9792 34.5208 60.125 34.3125 60.25C34.1042 60.75 33.8958 61.2292 33.6875 61.6875C33.5208 62.1458 33.2083 62.7292 32.75 63.4375C32.25 64.1875 31.7292 65.0208 31.1875 65.9375C31.1042 66.2708 31.0625 66.5208 31.0625 66.6875C30.8542 66.8958 30.75 67.1667 30.75 67.5C30.75 67.8333 30.6458 68.3333 30.4375 69C31.1458 70.2083 31.8542 71.375 32.5625 72.5C33.3125 73.625 34.1042 74.7708 34.9375 75.9375L35.6875 77.1875C35.9375 77.5625 36.2083 77.9167 36.5 78.25C36.7083 78.5 36.9167 78.7083 37.125 78.875C37.3333 79.0417 37.4792 79.2917 37.5625 79.625C37.7708 79.7083 37.9375 79.8958 38.0625 80.1875C38.2292 80.4792 38.3542 80.7292 38.4375 80.9375C38.5625 81.1875 38.7083 81.4375 38.875 81.6875L39.375 82.4375C39.7083 82.9375 40.0208 83.4583 40.3125 84L41.3125 85.5C41.5208 85.875 41.75 86.25 42 86.625C42.2917 86.9583 42.5833 87.3125 42.875 87.6875L43.25 88.1875C43.375 88.3542 43.5 88.5417 43.625 88.75L44 89.25C44.1667 89.4167 44.2917 89.625 44.375 89.875C44.5417 90.0833 44.7292 90.2917 44.9375 90.5C45.1458 90.6667 45.3333 90.875 45.5 91.125C45.9167 91.0833 46.2292 91.1458 46.4375 91.3125C46.6875 91.5208 46.9792 91.6667 47.3125 91.75C47.4792 91.6667 47.5833 91.5417 47.625 91.375C47.7083 91.2083 47.8333 91.0833 48 91V90.6875C48 90.5625 48.2708 90.5625 48.8125 90.6875C48.9375 91.1875 49.2708 91.4375 49.8125 91.4375C50.1458 91.1875 50.4375 90.8958 50.6875 90.5625C50.9375 90.1875 51.2292 89.875 51.5625 89.625C51.7708 89.2917 51.9792 88.9792 52.1875 88.6875C52.3958 88.3958 52.6042 88.0833 52.8125 87.75C53.0208 87.4167 53.2083 87.0833 53.375 86.75L54 85.75C54.375 85.1667 54.7708 84.5 55.1875 83.75C55.6042 83 56.0208 82.3542 56.4375 81.8125C56.5208 81.6042 56.6042 81.4375 56.6875 81.3125C56.8125 81.1875 56.9167 81.0417 57 80.875C57.0833 80.7917 57.1458 80.6875 57.1875 80.5625C57.2292 80.3958 57.2917 80.25 57.375 80.125C57.5 79.9583 57.6042 79.8125 57.6875 79.6875C57.8125 79.5625 57.9167 79.3958 58 79.1875C58.1667 78.9792 58.4583 78.5417 58.875 77.875C59.2917 77.2083 59.7292 76.5208 60.1875 75.8125C60.6458 75.1042 61.0625 74.4375 61.4375 73.8125C61.8125 73.1875 62.0208 72.7917 62.0625 72.625C62.2292 72.5 62.3333 72.3542 62.375 72.1875C62.4583 71.9792 62.6042 71.8333 62.8125 71.75L63.0625 71.25C63.1875 71.0833 63.3333 70.9167 63.5 70.75C63.5833 70.4583 63.7083 70.1875 63.875 69.9375C64.0833 69.6875 64.2708 69.4167 64.4375 69.125C64.3958 69 64.3958 68.875 64.4375 68.75C64.4569 68.7113 64.474 68.6725 64.4888 68.6338C64.5913 68.7821 64.6783 68.9459 64.75 69.125C64.9583 69.2917 65.1458 69.4375 65.3125 69.5625C65.4792 69.6875 65.5625 69.8958 65.5625 70.1875C65.9375 70.4792 66.375 70.9167 66.875 71.5C67.4167 72.0417 67.9375 72.625 68.4375 73.25C68.9375 73.875 69.4167 74.5 69.875 75.125C70.3333 75.7083 70.6875 76.2083 70.9375 76.625C71.2708 77.0833 71.5833 77.5625 71.875 78.0625C72.1667 78.5625 72.4792 79.0417 72.8125 79.5C73.1458 79.9167 73.5 80.3333 73.875 80.75C74.2917 81.1667 74.6667 81.6042 75 82.0625C75.7083 82.9375 76.3958 83.8125 77.0625 84.6875C77.7708 85.5625 78.4583 86.4792 79.125 87.4375C79.375 87.7708 79.6458 88.0625 79.9375 88.3125C80.2292 88.5208 80.5 88.7708 80.75 89.0625C81.0417 89.4792 81.3125 89.8958 81.5625 90.3125C81.8542 90.7292 82.1667 91.125 82.5 91.5C82.75 91.5833 82.9375 91.6667 83.0625 91.75C83.2292 91.875 83.4792 91.9375 83.8125 91.9375C83.8958 91.9375 84.0208 91.875 84.1875 91.75C84.3542 91.6667 84.5 91.6042 84.625 91.5625C85 91.4792 85.4583 91.4375 86 91.4375C86.5417 91.4792 87.0417 91.5 87.5 91.5C87.7083 91.5 87.9792 91.4792 88.3125 91.4375C88.6458 91.3958 89.0208 91.2292 89.4375 90.9375C89.6458 90.8542 89.8333 90.8125 90 90.8125C90.2083 90.7708 90.3125 90.5625 90.3125 90.1875C90.3125 89.8542 90.25 89.5417 90.125 89.25C90 88.9167 89.8333 88.6458 89.625 88.4375C88.875 87.2292 88.0833 86.0625 87.25 84.9375C86.4167 83.8125 85.6042 82.6667 84.8125 81.5C84.5625 81.1667 84.1042 80.625 83.4375 79.875C82.7708 79.125 82.0833 78.3542 81.375 77.5625C80.7083 76.7292 80.1042 75.9792 79.5625 75.3125C79.0208 74.6042 78.7083 74.1458 78.625 73.9375C78.4583 73.7708 78.0833 73.375 77.5 72.75C76.9583 72.125 76.375 71.4583 75.75 70.75C75.1667 70.0417 74.625 69.375 74.125 68.75C73.625 68.125 73.3542 67.7083 73.3125 67.5C73.3125 67.2083 73.4167 66.8542 73.625 66.4375C73.875 65.9792 74.1458 65.5208 74.4375 65.0625C74.7708 64.5625 75.0833 64.0833 75.375 63.625C75.7083 63.1667 75.9583 62.8125 76.125 62.5625C76.2917 62.2708 76.4375 61.9792 76.5625 61.6875C76.6875 61.3542 76.8542 61.0417 77.0625 60.75C77.5208 59.9167 78.0625 59.125 78.6875 58.375C79.3125 57.625 79.875 56.8542 80.375 56.0625C80.4583 55.9375 80.5208 55.8125 80.5625 55.6875C80.6042 55.5208 80.6667 55.375 80.75 55.25C80.9167 54.9583 81.125 54.75 81.375 54.625C81.6667 54.4583 81.9167 54.25 82.125 54C82.5833 53.375 83.0417 52.7292 83.5 52.0625L84.875 49.9375C85.1667 49.7292 85.375 49.4792 85.5 49.1875C85.6667 48.8958 85.9167 48.6875 86.25 48.5625C86.4583 48.1458 86.6875 47.75 86.9375 47.375C87.2292 47 87.4583 46.5833 87.625 46.125C87.25 45.7083 86.875 45.3958 86.5 45.1875C86.125 44.9792 85.6667 44.875 85.125 44.875C84.9167 44.6667 84.7083 44.4375 84.5 44.1875C84.2917 43.9375 83.8958 43.75 83.3125 43.625C82.9375 43.625 82.6458 43.4792 82.4375 43.1875C82.2292 42.8542 81.7708 42.7292 81.0625 42.8125C80.6458 43.0208 80.2292 43.3542 79.8125 43.8125C79.3958 44.2292 78.9792 44.6875 78.5625 45.1875C78.1875 45.6875 77.8125 46.2083 77.4375 46.75C77.0625 47.25 76.7292 47.7083 76.4375 48.125C75.8542 48.9583 75.3125 49.7917 74.8125 50.625C74.3125 51.4167 73.7708 52.2292 73.1875 53.0625C72.5625 53.9375 71.8958 54.8333 71.1875 55.75C70.4792 56.625 69.8333 57.5417 69.25 58.5L68.625 59.625L68 60.75C67.7917 61.0417 67.5625 61.3125 67.3125 61.5625C67.0625 61.8125 66.875 62.0625 66.75 62.3125C66.6667 62.4792 66.625 62.6458 66.625 62.8125C66.625 62.9375 66.6042 63.0833 66.5625 63.25C66.3542 63.7917 66.0417 64.2708 65.625 64.6875C65.25 65.1042 64.9583 65.5833 64.75 66.125C64.6667 66.2917 64.6042 66.4583 64.5625 66.625C64.5625 66.75 64.5208 66.8958 64.4375 67.0625L64.3125 67.4375C64.2939 67.4933 64.2794 67.5533 64.2691 67.6174C64.1541 67.4369 64.0228 67.2728 63.875 67.125ZM51.0625 76.25C50.8125 76.75 50.4583 77.3125 50 77.9375C49.5417 78.3958 49.1667 78.9167 48.875 79.5C48.625 80.0417 48.2917 80.5417 47.875 81C47.6667 80.875 47.3958 80.5625 47.0625 80.0625C46.7292 79.5625 46.3958 79.0208 46.0625 78.4375C45.7292 77.8542 45.3958 77.2917 45.0625 76.75C44.7292 76.1667 44.4583 75.7292 44.25 75.4375C44.0417 75.1458 43.8333 74.875 43.625 74.625C43.4167 74.375 43.2292 74.0833 43.0625 73.75C42.7292 73.4167 42.4583 73.0833 42.25 72.75C42.0417 72.375 41.7708 72.0417 41.4375 71.75C41.3958 71.625 41.25 71.375 41 71C40.7917 70.625 40.5417 70.2292 40.25 69.8125C39.9583 69.3542 39.6667 68.9167 39.375 68.5C39.125 68.0417 38.9375 67.6875 38.8125 67.4375C39.0208 66.9792 39.2292 66.5833 39.4375 66.25C39.6458 65.9167 39.9167 65.5417 40.25 65.125C40.4583 64.8333 40.625 64.5417 40.75 64.25C40.9167 63.9167 41.1042 63.6042 41.3125 63.3125C41.5208 62.9792 41.7083 62.6875 41.875 62.4375L42.5 61.5625L43.375 60.0625C43.6667 59.5208 43.9583 59 44.25 58.5C44.5833 57.9583 44.9167 57.4583 45.25 57C45.625 56.5417 45.9583 56.0417 46.25 55.5C46.3333 55.4167 46.4167 55.375 46.5 55.375C46.625 55.3333 46.75 55.2708 46.875 55.1875C47.0833 55.4792 47.2917 55.75 47.5 56C47.7083 56.2083 47.9167 56.4583 48.125 56.75C48.2083 56.9167 48.2708 57.0833 48.3125 57.25C48.3958 57.375 48.4792 57.5417 48.5625 57.75C48.6875 57.9583 48.8542 58.2292 49.0625 58.5625C49.2708 58.8542 49.5 59.1875 49.75 59.5625C50.0417 59.8958 50.3125 60.2083 50.5625 60.5C50.8125 60.7917 51.0208 61.0208 51.1875 61.1875C51.3125 61.4375 51.4583 61.6458 51.625 61.8125C51.7917 61.9792 51.9583 62.1667 52.125 62.375C52.2917 62.7083 52.4167 62.9792 52.5 63.1875C52.625 63.3125 52.7292 63.4375 52.8125 63.5625C52.9375 63.6875 53.0833 63.8125 53.25 63.9375L53.625 64.5625L54 65.1875C54.3333 65.6458 54.6667 66.125 55 66.625C55.3333 67.0833 55.625 67.75 55.875 68.625C55.625 68.8333 55.4375 69.0625 55.3125 69.3125C55.1875 69.5625 55 69.7708 54.75 69.9375C54.5417 70.5208 54.25 71.0625 53.875 71.5625L52.875 73.0625C52.75 73.2708 52.6458 73.4792 52.5625 73.6875C52.4792 73.8958 52.2292 74.25 51.8125 74.75L51.0625 76.25ZM119.25 63.125C119.917 62.4167 120.438 61.6667 120.812 60.875C120.729 60.625 120.688 60.3958 120.688 60.1875C120.688 59.8958 120.708 59.625 120.75 59.375C120.833 59.125 120.875 58.8542 120.875 58.5625L120.812 56.875C120.479 56.625 120.125 56.4167 119.75 56.25C119.417 56.0417 119.021 55.7083 118.562 55.25C118.354 55 118.042 54.7708 117.625 54.5625C117.25 54.3542 116.833 54.1667 116.375 54C115.958 53.7917 115.521 53.6042 115.062 53.4375C114.646 53.2708 114.292 53.1042 114 52.9375C113.167 52.4792 112.375 51.9792 111.625 51.4375C110.917 50.8542 110.104 50.3958 109.188 50.0625C109.146 49.9792 109.083 49.9375 109 49.9375C108.958 49.8958 108.729 49.7708 108.312 49.5625C107.896 49.3542 107.5 49.1042 107.125 48.8125C106.75 48.5208 106.375 48.25 106 48L105.5 47.75C105.333 47.6667 105.167 47.5625 105 47.4375C104.292 47.0208 103.646 46.5208 103.062 45.9375C102.521 45.3125 101.792 44.8333 100.875 44.5L100.625 44.125C100.542 44 100.438 43.8958 100.312 43.8125C100.104 43.8542 99.875 43.875 99.625 43.875C99.4167 43.875 99.0417 43.8958 98.5 43.9375C98.2083 43.9375 98.0417 44 98 44.125C98 44.2083 97.8958 44.2917 97.6875 44.375C97.5208 44.2083 97.2708 44.125 96.9375 44.125C96.7292 44.125 96.4792 44.1875 96.1875 44.3125C95.9375 44.3958 95.7083 44.4792 95.5 44.5625C95.2917 44.3958 95.0417 44.3125 94.75 44.3125C94.5 44.2708 94.25 44.25 94 44.25C93.9167 44.3333 93.8333 44.4375 93.75 44.5625L93.5 44.8125C93.5417 45.0208 93.5625 45.2292 93.5625 45.4375V46V46.4375C93.5625 46.5625 93.5208 46.6875 93.4375 46.8125C93.5625 47.6458 93.6458 48.4792 93.6875 49.3125C93.7292 50.1458 93.7917 50.9583 93.875 51.75C93.875 52 93.8958 52.25 93.9375 52.5C93.9792 52.75 94.0208 52.9792 94.0625 53.1875C94.1458 54.0625 94.1875 54.9583 94.1875 55.875V58.5V59.5625C94.1875 59.8958 94.1667 60.25 94.125 60.625C94.0833 60.9583 94.0208 61.2917 93.9375 61.625C93.8958 61.9583 93.875 62.3125 93.875 62.6875C93.875 63.1458 93.8542 63.5833 93.8125 64V65.1875C93.8125 65.7708 93.7917 66.3333 93.75 66.875V68.4375C93.75 68.6458 93.7083 68.8125 93.625 68.9375C93.5833 69.0208 93.5417 69.1667 93.5 69.375C93.5833 69.625 93.6042 69.875 93.5625 70.125C93.5208 70.375 93.5 70.625 93.5 70.875C93.5 71.125 93.4792 71.4792 93.4375 71.9375C93.4375 72.6042 93.4792 73.2708 93.5625 73.9375C93.6458 74.6042 93.6875 75.2917 93.6875 76C93.6875 76.3333 93.6458 76.6667 93.5625 77C93.5208 77.2917 93.5 77.5833 93.5 77.875V79.625C93.5417 80.2083 93.625 80.7708 93.75 81.3125C93.6667 81.3958 93.6042 81.5208 93.5625 81.6875V82.125C93.5625 82.3333 93.5833 82.5417 93.625 82.75C93.6667 82.9583 93.7292 83.1667 93.8125 83.375C93.7292 84.0833 93.7083 84.7708 93.75 85.4375C93.7917 86.1042 93.8125 86.7917 93.8125 87.5V88C93.8125 88.1667 93.7917 88.3125 93.75 88.4375C93.8333 88.6458 93.8958 88.8542 93.9375 89.0625C94.0208 89.2708 94.125 89.4583 94.25 89.625C94.2917 89.9583 94.3542 90.2708 94.4375 90.5625C94.5208 90.8125 94.6042 91.0833 94.6875 91.375C94.8542 91.375 95.0625 91.3542 95.3125 91.3125C95.6042 91.3125 95.9583 91.1667 96.375 90.875C96.5 90.9583 96.7292 91 97.0625 91C97.2708 91 97.5 90.9792 97.75 90.9375C98 90.8542 98.2292 90.8125 98.4375 90.8125C98.8542 90.6458 99.1667 90.4583 99.375 90.25C99.5833 90.3333 99.7292 90.3125 99.8125 90.1875C99.9375 90.0625 100.083 89.9792 100.25 89.9375C100.458 89.9792 100.646 90.1458 100.812 90.4375C101.021 90.6875 101.229 90.7917 101.438 90.75C101.604 90.0833 101.688 89.4375 101.688 88.8125C101.729 88.1458 101.75 87.4583 101.75 86.75V84.125C101.75 83.2083 101.792 82.2708 101.875 81.3125C102.208 81.0625 102.521 80.7917 102.812 80.5L103.812 79.625C104.188 79.375 104.521 79.0833 104.812 78.75C105.104 78.4167 105.438 78.1458 105.812 77.9375C106.104 78.1458 106.354 78.4167 106.562 78.75C106.771 79.0833 107.021 79.375 107.312 79.625C107.562 79.9167 107.792 80.2292 108 80.5625C108.208 80.8958 108.417 81.1875 108.625 81.4375C108.958 81.8542 109.292 82.25 109.625 82.625C110 82.9583 110.354 83.3125 110.688 83.6875L112.562 86.3125C113.188 87.1875 113.854 88.0208 114.562 88.8125L114.812 89.3125C114.938 89.4375 115.021 89.6042 115.062 89.8125C115.479 90.0208 115.812 90.3333 116.062 90.75C116.312 91.125 116.646 91.4375 117.062 91.6875C117.396 91.6042 117.688 91.4583 117.938 91.25C118.229 91.0833 118.542 91 118.875 91C119.083 90.8333 119.25 90.6667 119.375 90.5C119.5 90.2917 119.667 90.1042 119.875 89.9375C120.375 89.9375 120.771 89.8125 121.062 89.5625C121.354 89.3125 121.708 89.1875 122.125 89.1875C122.375 88.9375 122.646 88.7083 122.938 88.5C123.271 88.25 123.5 87.9583 123.625 87.625C123.625 87.5417 123.604 87.4375 123.562 87.3125V86.8125C123.479 86.6042 123.312 86.4167 123.062 86.25C122.812 86.0417 122.688 85.8333 122.688 85.625C122.354 85.3333 122.083 85.0417 121.875 84.75C121.708 84.4167 121.5 84.0417 121.25 83.625C121 83.2917 120.708 82.9792 120.375 82.6875C120.083 82.3542 119.792 81.875 119.5 81.25C119.167 80.7083 118.771 80.2083 118.312 79.75C117.854 79.25 117.396 78.7292 116.938 78.1875C116.021 77.1042 115.125 76.0208 114.25 74.9375C113.417 73.8542 112.688 72.6458 112.062 71.3125C112.229 71.0625 112.396 70.8542 112.562 70.6875L113.188 70.1875C113.479 69.8125 113.792 69.4792 114.125 69.1875C114.458 68.8542 114.792 68.5 115.125 68.125C115.542 67.6667 115.917 67.1667 116.25 66.625C116.583 66.0833 116.979 65.5833 117.438 65.125C118.021 64.5 118.625 63.8333 119.25 63.125ZM110.875 58.5625C111.333 58.7708 111.792 59 112.25 59.25C112.375 59.5417 112.583 59.7083 112.875 59.75C112.625 60.2083 112.354 60.5417 112.062 60.75C111.646 61.5 111.125 62.1875 110.5 62.8125C109.875 63.3958 109.271 64 108.688 64.625C108.479 64.8333 108.292 65.0625 108.125 65.3125C107.958 65.5208 107.771 65.75 107.562 66C107.271 66.2083 107 66.4583 106.75 66.75C106.5 67.0417 106.25 67.3125 106 67.5625L104.312 69.25C103.771 69.7917 103.229 70.3542 102.688 70.9375C102.479 71.0208 102.333 71.125 102.25 71.25C102.167 71.3333 102.021 71.375 101.812 71.375C101.771 71.0417 101.75 70.75 101.75 70.5V69.6875V67.375C101.75 66.4167 101.792 65.6458 101.875 65.0625C101.917 64.9375 101.958 64.8333 102 64.75C102.042 64.625 102.104 64.5 102.188 64.375C102.271 63.5833 102.333 62.8125 102.375 62.0625C102.417 61.3125 102.438 60.5417 102.438 59.75V58.75V57.0625V55.4375C102.438 54.9375 102.5 54.6667 102.625 54.625C102.708 54.625 103.062 54.7708 103.688 55.0625C104.354 55.3125 105.062 55.625 105.812 56C106.604 56.3333 107.375 56.6667 108.125 57C108.875 57.2917 109.396 57.4792 109.688 57.5625C110.021 57.9792 110.417 58.3125 110.875 58.5625ZM128.875 90.25L129.25 90L129.688 90.1875C129.896 90.1875 130.062 90.1458 130.188 90.0625C130.354 89.9792 130.521 89.9167 130.688 89.875C131.062 88.7917 131.396 87.7292 131.688 86.6875C131.979 85.6042 132.354 84.3542 132.812 82.9375C133.062 82.3542 133.271 81.7708 133.438 81.1875C133.646 80.5625 133.917 79.8542 134.25 79.0625C134.625 79.2708 134.979 79.5417 135.312 79.875C135.688 80.1667 136.042 80.4583 136.375 80.75C136.792 80.9167 137.208 81.125 137.625 81.375C138.083 81.5833 138.479 81.8542 138.812 82.1875C138.896 82.2708 138.958 82.3542 139 82.4375C139.083 82.5208 139.188 82.6042 139.312 82.6875C139.604 82.8542 139.917 82.9375 140.25 82.9375H140.75C140.917 82.8958 141.083 82.8958 141.25 82.9375C141.542 82.9792 141.771 83.0625 141.938 83.1875C142.104 83.3125 142.542 83.3542 143.25 83.3125C143.542 83.0625 143.812 82.7917 144.062 82.5C144.312 82.2083 144.417 81.6875 144.375 80.9375C144.75 80.5625 145.188 80.1667 145.688 79.75C145.688 79.6667 145.771 79.5625 145.938 79.4375C146.104 79.3125 146.229 79.2083 146.312 79.125C146.521 78.7917 146.625 78.4583 146.625 78.125C146.667 77.75 146.646 77.3958 146.562 77.0625C146.729 77.4792 146.875 77.875 147 78.25C147.167 78.625 147.312 79.0417 147.438 79.5C147.771 80.5833 148.104 81.6458 148.438 82.6875C148.812 83.7292 149.208 84.7917 149.625 85.875C149.833 86.4167 150.021 87.1667 150.188 88.125C150.396 89.0833 150.5 89.9167 150.5 90.625C150.708 90.9583 150.938 91.25 151.188 91.5C151.479 91.7917 151.771 92.1042 152.062 92.4375C152.229 92.2292 152.375 92.0833 152.5 92C152.667 91.9583 152.812 91.9375 152.938 91.9375C153.104 91.9375 153.25 91.9167 153.375 91.875C153.542 91.875 153.875 91.8958 154.375 91.9375C154.417 91.8542 154.479 91.7083 154.562 91.5C154.688 91.3333 155 91.2708 155.5 91.3125C155.958 91.3125 156.292 91.2292 156.5 91.0625C156.75 90.8958 157.042 90.6667 157.375 90.375C157.667 90.0833 157.896 89.875 158.062 89.75C158.271 89.625 158.375 89.3125 158.375 88.8125C158.375 88.2292 158.271 87.6875 158.062 87.1875C157.854 86.6458 157.667 85.9375 157.5 85.0625C157.417 84.8958 157.333 84.75 157.25 84.625C157.167 84.5 157.146 84.2083 157.188 83.75C156.979 83.4167 156.833 83.1042 156.75 82.8125C156.708 82.5208 156.604 82.2083 156.438 81.875C156.354 81.5417 156.229 81.2708 156.062 81.0625C155.896 80.8125 155.771 80.5417 155.688 80.25C155.562 79.7917 155.438 79.3542 155.312 78.9375C155.229 78.5208 155.146 78.0833 155.062 77.625C154.938 77.1667 154.771 76.6875 154.562 76.1875C154.396 75.6875 154.229 75.2083 154.062 74.75L153.375 73.375C153.125 72.8333 152.958 72.3958 152.875 72.0625C152.75 71.6458 152.542 70.9375 152.25 69.9375C151.958 68.9375 151.646 67.8958 151.312 66.8125C150.979 65.7292 150.646 64.7292 150.312 63.8125C149.979 62.8542 149.688 62.2083 149.438 61.875C149.354 61.375 149.208 60.9167 149 60.5C148.792 60.0417 148.646 59.5833 148.562 59.125C148.312 58.875 148.125 58.5833 148 58.25L147.625 57.125C147.542 56.7083 147.438 56.3125 147.312 55.9375C147.188 55.5208 147 55.1667 146.75 54.875C146.625 54.5 146.479 54.125 146.312 53.75C146.188 53.375 146.021 53.0208 145.812 52.6875C145.729 52.5208 145.646 52.375 145.562 52.25C145.479 52.0833 145.417 51.9375 145.375 51.8125C145.208 51.3958 145.062 50.9792 144.938 50.5625L144.562 49.1875C144.271 48.2708 143.958 47.3542 143.625 46.4375C143.333 45.5208 142.792 44.625 142 43.75C141.792 43.75 141.583 43.7292 141.375 43.6875C141.208 43.6042 141.021 43.5417 140.812 43.5C140.479 43.75 140.125 43.9583 139.75 44.125C139.417 44.2917 138.875 44.3333 138.125 44.25C137.875 44.4583 137.562 44.6667 137.188 44.875C136.854 45.0417 136.625 45.2708 136.5 45.5625C136.292 45.9375 136.125 46.4583 136 47.125C135.875 47.7917 135.75 48.3542 135.625 48.8125C135.542 49.0208 135.458 49.2083 135.375 49.375C135.292 49.5 135.208 49.6667 135.125 49.875C135.042 50.2083 134.958 50.5208 134.875 50.8125C134.833 51.1042 134.771 51.4167 134.688 51.75C134.688 51.8333 134.625 52.125 134.5 52.625C134.375 53.0833 134.229 53.5833 134.062 54.125C133.896 54.6667 133.75 55.1667 133.625 55.625L133.438 56.25C133.104 56.75 132.875 57.2292 132.75 57.6875C132.667 58.1042 132.521 58.5833 132.312 59.125L132.125 59.6875C132.042 59.9375 131.958 60.2083 131.875 60.5C131.792 60.7917 131.708 61.0625 131.625 61.3125C131.583 61.5625 131.583 61.8333 131.625 62.125C131.292 62.7083 131.083 63.3333 131 64C130.958 64.625 130.833 65.25 130.625 65.875C130.542 66.0833 130.458 66.3125 130.375 66.5625C130.333 66.8125 130.292 67.0417 130.25 67.25C129.958 68.4583 129.646 69.6667 129.312 70.875C128.979 72.0417 128.646 73.2292 128.312 74.4375C128.188 74.8125 128.062 75.2083 127.938 75.625C127.854 76 127.729 76.3958 127.562 76.8125C127.479 77.0625 127.354 77.3125 127.188 77.5625C127.062 77.8125 126.958 78.0625 126.875 78.3125C126.667 78.9792 126.396 79.625 126.062 80.25C125.771 80.875 125.625 81.5417 125.625 82.25C125.292 82.8333 125.042 83.5208 124.875 84.3125C124.75 85.1042 124.583 85.8125 124.375 86.4375C124.292 86.6458 124.229 86.8333 124.188 87C124.146 87.1667 124.083 87.3333 124 87.5C123.833 88 123.729 88.3958 123.688 88.6875C123.688 88.9375 123.667 89.1875 123.625 89.4375C123.625 89.6875 123.562 89.9583 123.438 90.25C123.312 90.5417 123.062 90.9583 122.688 91.5L123.438 91.125C123.812 90.9583 124.083 90.8542 124.25 90.8125C124.333 91.1042 124.646 91.25 125.188 91.25H125.625C125.708 91.25 125.833 91.3542 126 91.5625C126.458 91.1458 126.875 90.9375 127.25 90.9375C127.625 90.8958 128.042 90.75 128.5 90.5L128.875 90.25ZM136.25 75.75C136 75.7917 135.708 76.1042 135.375 76.6875H135.125C135.708 75.0208 136.208 73.3542 136.625 71.6875C137.083 70.0208 137.583 68.375 138.125 66.75C138.208 66.5 138.292 66.2708 138.375 66.0625C138.458 65.8125 138.542 65.5417 138.625 65.25C138.667 65.0417 138.688 64.75 138.688 64.375C138.854 63.5417 139.104 62.5833 139.438 61.5C139.771 60.4167 140.104 59.5 140.438 58.75C140.771 59.5 141.042 60.2708 141.25 61.0625C141.458 61.8542 141.708 62.6667 142 63.5C142.333 64.3333 142.667 65.2083 143 66.125C143.333 67 143.625 67.8958 143.875 68.8125C144.208 69.8542 144.479 70.9167 144.688 72C144.938 73.0417 145.271 74.0833 145.688 75.125C145.438 74.9583 145.083 74.8333 144.625 74.75C144.167 74.625 143.896 74.4375 143.812 74.1875C143.146 74.0625 142.583 73.8333 142.125 73.5C141.667 73.125 141.083 72.9375 140.375 72.9375C139.917 72.9375 139.562 73.0417 139.312 73.25C139.104 73.4583 138.833 73.7083 138.5 74C138.375 74.125 138.229 74.2292 138.062 74.3125C137.896 74.3958 137.75 74.4792 137.625 74.5625L137.25 74.9375C137.167 75.0625 137.083 75.1667 137 75.25C136.792 75.5 136.542 75.6667 136.25 75.75ZM187.25 46.8125C187.25 46.6458 187.292 46.4792 187.375 46.3125C187.167 46.2292 187.021 46.1042 186.938 45.9375C186.854 45.7292 186.729 45.5625 186.562 45.4375C186.188 45.4375 185.854 45.375 185.562 45.25C185.271 45.0833 184.958 44.9792 184.625 44.9375C184.458 44.9792 184.229 45 183.938 45C183.604 45 183.292 44.9792 183 44.9375C182.708 44.8958 182.396 44.875 182.062 44.875C181.938 44.875 181.792 44.8958 181.625 44.9375C181.5 44.9792 181.271 44.9583 180.938 44.875H174.875C174.625 44.875 174.396 44.8542 174.188 44.8125C174.021 44.7292 173.896 44.6875 173.812 44.6875C173.146 44.6875 172.5 44.6458 171.875 44.5625C171.292 44.4792 170.667 44.4375 170 44.4375C169.542 44.4375 169.021 44.375 168.438 44.25C167.854 44.0833 167.271 44 166.688 44C166.062 44 165.396 44.0417 164.688 44.125C164.021 44.2083 163.375 44.3125 162.75 44.4375C162.458 44.4792 162.167 44.5 161.875 44.5C161.583 44.5 161.292 44.5208 161 44.5625C160.75 44.6042 160.521 44.6667 160.312 44.75C160.104 44.8333 159.875 44.9167 159.625 45C159.167 45.125 158.75 45.2292 158.375 45.3125C158.042 45.3958 157.688 45.5417 157.312 45.75C157.188 46.125 157.125 46.4583 157.125 46.75C157.125 46.9167 157.188 47.0833 157.312 47.25C157.438 47.4167 157.521 47.6667 157.562 48C157.562 48.3333 157.688 48.5833 157.938 48.75C158.146 48.875 158.25 49 158.25 49.125C158.25 49.2083 158.229 49.2708 158.188 49.3125C158.146 49.3542 158.25 49.625 158.5 50.125V50.9375C158.667 51.1042 158.917 51.1875 159.25 51.1875H159.562C159.688 51.1458 160 51.1458 160.5 51.1875C161.25 51.1458 161.979 51.1042 162.688 51.0625C163.438 50.9792 164.208 50.9167 165 50.875C165.417 50.75 165.854 50.6875 166.312 50.6875C166.521 50.6875 166.708 50.7083 166.875 50.75H167.5C167.583 50.8333 167.667 50.9792 167.75 51.1875C167.833 51.3958 167.875 51.5625 167.875 51.6875C167.875 52.6875 167.812 53.6875 167.688 54.6875C167.604 55.6875 167.562 56.6667 167.562 57.625C167.562 59.625 167.583 61.6042 167.625 63.5625C167.708 65.5208 167.75 67.5 167.75 69.5C167.75 69.9167 167.729 70.3333 167.688 70.75C167.688 71.1667 167.708 71.5625 167.75 71.9375V72.625C167.792 72.8333 167.812 73.0417 167.812 73.25C167.812 73.75 167.792 74.25 167.75 74.75V76.25V77C167.792 77.25 167.812 77.5 167.812 77.75C167.812 77.8333 167.792 77.9167 167.75 78C167.708 78.0417 167.729 78.2292 167.812 78.5625C167.812 78.9792 167.771 79.375 167.688 79.75C167.604 80.125 167.562 80.4792 167.562 80.8125C167.562 81.8958 167.604 82.9583 167.688 84C167.771 85.0417 167.812 86.1042 167.812 87.1875C167.812 87.7292 167.792 88.2292 167.75 88.6875C167.708 89.1458 167.646 89.6667 167.562 90.25C167.646 90.3333 167.729 90.4583 167.812 90.625C167.938 90.75 168.021 90.8542 168.062 90.9375C168.146 91.1042 168.167 91.25 168.125 91.375C168.125 91.5417 168.25 91.7083 168.5 91.875C168.75 91.875 169 91.8333 169.25 91.75C169.542 91.7083 169.792 91.625 170 91.5C170.208 91.5 170.333 91.5625 170.375 91.6875C170.417 91.8125 170.562 91.8542 170.812 91.8125C171.104 91.8125 171.292 91.7708 171.375 91.6875C171.458 91.6458 171.542 91.625 171.625 91.625H172C172.167 91.625 172.312 91.6458 172.438 91.6875C172.688 91.6042 172.896 91.5 173.062 91.375C173.271 91.2917 173.562 91.2708 173.938 91.3125C174.021 91.3958 174.042 91.4792 174 91.5625C174 91.6875 174.146 91.7917 174.438 91.875C174.854 91.875 175.104 91.75 175.188 91.5C175.271 91.25 175.417 90.9583 175.625 90.625V89.25C175.667 88.7917 175.688 88.3333 175.688 87.875C175.688 86.9167 175.667 85.9583 175.625 85C175.583 84.0417 175.562 83.0833 175.562 82.125C175.562 81.6667 175.583 81.25 175.625 80.875C175.667 80.4583 175.688 80.0208 175.688 79.5625C175.688 78.1458 175.708 76.75 175.75 75.375C175.792 73.9583 175.812 72.5417 175.812 71.125C175.812 70.5 175.792 69.8958 175.75 69.3125C175.708 68.7292 175.667 68.125 175.625 67.5C175.583 66.2917 175.542 65.1042 175.5 63.9375V60.4375V58.875C175.542 58.375 175.583 57.8542 175.625 57.3125C175.625 57.1042 175.646 56.8958 175.688 56.6875C175.729 56.4375 175.75 56.2083 175.75 56V53.8125C175.792 53.0625 175.833 52.3333 175.875 51.625C176.083 51.5833 176.271 51.5625 176.438 51.5625H176.938C177.604 51.5625 178.229 51.6042 178.812 51.6875C179.438 51.7292 180.062 51.75 180.688 51.75H181.125C181.25 51.7083 181.354 51.6875 181.438 51.6875C181.562 51.6875 181.688 51.7083 181.812 51.75H182.125C182.625 51.75 183.125 51.7292 183.625 51.6875C184.167 51.6042 184.667 51.5625 185.125 51.5625H185.938C186.146 51.3542 186.292 51.1458 186.375 50.9375L186.75 50.3125C186.708 50.0208 186.729 49.7708 186.812 49.5625C186.938 49.3542 187 49.125 187 48.875L187.438 48.25C187.438 48.1667 187.396 48.125 187.312 48.125C187.229 48.125 187.229 47.875 187.312 47.375C187.312 47.1667 187.292 46.9792 187.25 46.8125ZM213 83.8125C212.833 83.3125 212.583 82.7917 212.25 82.25C212.292 82.125 212.375 81.9792 212.5 81.8125C212.625 81.6042 212.688 81.4583 212.688 81.375C212.604 81.375 212.458 81.1875 212.25 80.8125C212.042 80.6042 211.875 80.375 211.75 80.125C211.625 79.875 211.312 79.5208 210.812 79.0625C210.604 79.0625 210.417 79.0417 210.25 79C210.125 78.9583 209.958 78.9167 209.75 78.875C209.583 79.0833 209.292 79.1458 208.875 79.0625C208.208 79.3125 207.542 79.5833 206.875 79.875C206.208 80.125 205.521 80.375 204.812 80.625L203.812 81C203.479 81.0833 203 81.2917 202.375 81.625C202.208 81.7083 202.062 81.7708 201.938 81.8125C201.812 81.8542 201.646 81.8958 201.438 81.9375C201.271 82.0208 201.104 82.0625 200.938 82.0625C200.812 82.0625 200.667 82.0833 200.5 82.125L199.875 82.375C199.667 82.4167 199.458 82.4792 199.25 82.5625V81.5625C199.25 81.2708 199.292 80.9167 199.375 80.5C199.417 80.0417 199.438 79.6042 199.438 79.1875V77.875V74.75V73.0625C199.771 72.8125 200 72.625 200.125 72.5C200.292 72.3333 200.604 72.1875 201.062 72.0625C201.646 71.9375 202.208 71.7083 202.75 71.375C203.333 71 203.896 70.6667 204.438 70.375C204.771 70.2083 205.083 70.0833 205.375 70L206.375 69.625C206.583 69.5417 206.792 69.4375 207 69.3125C207.25 69.1458 207.479 69.0208 207.688 68.9375C208.271 68.6875 208.854 68.4583 209.438 68.25C210.021 68 210.604 67.5208 211.188 66.8125C211.188 66.5208 211.125 66.2708 211 66.0625C210.875 65.8542 210.708 65.6458 210.5 65.4375C210.542 65.3958 210.542 65.1667 210.5 64.75C210.417 64.4583 210.333 64.2917 210.25 64.25C210.167 64.1667 210.125 63.9583 210.125 63.625C210.125 63.4167 209.958 63.1042 209.625 62.6875C209.333 62.2708 209.208 61.9583 209.25 61.75C209.125 61.6667 209.021 61.5625 208.938 61.4375C208.854 61.3125 208.771 61.2083 208.688 61.125C208.438 61.0417 208.167 60.9792 207.875 60.9375L207.125 60.8125L203 62.5625C201.667 63.1458 200.312 63.7292 198.938 64.3125C198.854 63.6875 198.75 63.0625 198.625 62.4375C198.542 61.7708 198.479 61.1458 198.438 60.5625C198.396 59.8542 198.354 59.1667 198.312 58.5C198.312 57.7917 198.271 57.0833 198.188 56.375C198.354 56.375 198.583 56.3542 198.875 56.3125C199.167 56.2292 199.354 56.1458 199.438 56.0625C199.896 55.9792 200.312 55.8542 200.688 55.6875C201.062 55.4792 201.458 55.2917 201.875 55.125C203.542 54.4167 205.167 53.7083 206.75 53C208.375 52.25 209.979 51.5 211.562 50.75C211.688 50.5417 211.792 50.3542 211.875 50.1875C211.958 49.9792 212 49.7292 212 49.4375C212 49.2292 211.896 48.875 211.688 48.375C211.479 47.875 211.208 47.3333 210.875 46.75C210.875 46.625 210.938 46.5 211.062 46.375C211.188 46.2083 211.25 46.0625 211.25 45.9375C211.125 45.9375 210.958 45.75 210.75 45.375C210.542 45.1667 210.354 44.9583 210.188 44.75C210.062 44.5 209.917 44.25 209.75 44C209.625 43.9583 209.354 43.8542 208.938 43.6875H208.5C208.375 43.6875 208.25 43.6667 208.125 43.625C208.042 43.7083 207.917 43.7708 207.75 43.8125H207.375C206.667 44.1458 205.979 44.4792 205.312 44.8125C204.688 45.1042 204.021 45.3958 203.312 45.6875C202.979 45.8542 202.646 46 202.312 46.125C202.021 46.25 201.562 46.5 200.938 46.875C200.479 47.0833 199.896 47.2917 199.188 47.5C198.979 47.5833 198.75 47.7083 198.5 47.875C198.25 48 198.021 48.0625 197.812 48.0625C197.688 48.0625 197.562 48.0417 197.438 48C197.312 47.9583 196.979 48.0208 196.438 48.1875C196.229 48.1875 196.083 48.125 196 48C195.958 47.875 195.583 47.8958 194.875 48.0625C194.792 48.0625 194.667 48 194.5 47.875C194.375 47.75 194.188 47.6875 193.938 47.6875C193.854 47.6875 193.729 47.7292 193.562 47.8125C193.438 47.8542 193 47.9167 192.25 48C192.083 47.9167 191.938 47.8333 191.812 47.75C191.688 47.625 191.521 47.5625 191.312 47.5625C191.229 47.5625 191.062 47.6042 190.812 47.6875C190.562 47.7708 190.438 47.8333 190.438 47.875C190.396 48.125 190.354 48.5417 190.312 49.125V51V52.875V54.25C190.312 56.1667 190.417 58.0625 190.625 59.9375C190.833 61.8125 190.938 63.7083 190.938 65.625C190.938 67.2083 191.042 68.7917 191.25 70.375C191.458 71.9583 191.562 73.5417 191.562 75.125C191.562 75.75 191.542 76.3542 191.5 76.9375V78.625V79.5625C191.542 79.8125 191.562 80.0833 191.562 80.375C191.562 80.5833 191.521 80.7708 191.438 80.9375C191.354 81.0625 191.312 81.4375 191.312 82.0625C191.312 82.2708 191.292 82.4792 191.25 82.6875V83.25C191.167 83.9167 191.146 84.5833 191.188 85.25C191.229 85.9167 191.167 86.6042 191 87.3125C191.083 87.6042 191.104 87.875 191.062 88.125C191.021 88.375 191 88.6458 191 88.9375C191 89.0208 191.042 89.1042 191.125 89.1875C191.208 89.2292 191.25 89.5208 191.25 90.0625C191.5 90.3542 191.604 90.7292 191.562 91.1875C191.562 91.6458 191.708 92 192 92.25C192.167 92.2083 192.312 92.1667 192.438 92.125C192.604 92.125 193 92.2083 193.625 92.375C193.958 92.2917 194.25 92.1458 194.5 91.9375C194.792 91.7292 195.104 91.5833 195.438 91.5C195.562 91.5833 195.708 91.6042 195.875 91.5625H196.438C196.646 91.4792 196.771 91.3542 196.812 91.1875C196.896 91.0625 197.042 91 197.25 91L197.5 91.125C197.583 91.1667 197.667 91.2917 197.75 91.5C197.833 91.5 198 91.4583 198.25 91.375C198.5 91.3333 198.75 91.2708 199 91.1875C199.292 91.1042 199.542 91.0208 199.75 90.9375C199.958 90.8542 200.104 90.7708 200.188 90.6875C200.646 90.6042 201.062 90.5 201.438 90.375C201.854 90.2083 202.271 90.0625 202.688 89.9375C204.396 89.3542 206.062 88.7708 207.688 88.1875C209.354 87.5625 211.021 86.8958 212.688 86.1875C212.854 85.9792 212.979 85.7917 213.062 85.625C213.188 85.4167 213.25 85.1667 213.25 84.875C213.25 84.6667 213.167 84.3125 213 83.8125ZM232.688 48.375C232.938 47.6667 233.062 47 233.062 46.375C233.062 45.6667 232.917 45.0417 232.625 44.5C232.292 44.4583 231.979 44.3958 231.688 44.3125C231.396 44.1875 231.083 44.125 230.75 44.125C230.542 44.125 230.354 44.1875 230.188 44.3125C230.021 44.3958 229.854 44.4375 229.688 44.4375C229.438 44.4375 229.167 44.4167 228.875 44.375L228.125 44.125C227.833 44.0417 227.479 43.9167 227.062 43.75C226.688 43.5833 226.396 43.5 226.188 43.5C225.938 43.5 225.708 43.6458 225.5 43.9375C225.292 44.2292 225.083 44.5625 224.875 44.9375C224.708 45.3125 224.562 45.6875 224.438 46.0625C224.312 46.4375 224.229 46.7292 224.188 46.9375C223.979 47.7708 223.667 48.4792 223.25 49.0625C222.875 49.6458 222.396 50.2708 221.812 50.9375C221.604 51.1458 221.438 51.375 221.312 51.625C221.229 51.8333 221.125 52.0833 221 52.375L220.375 53.375C220.208 53.6667 220.021 53.9792 219.812 54.3125C219.188 55.3542 218.583 56.3958 218 57.4375C217.417 58.4792 216.896 59.5625 216.438 60.6875C216.354 60.7708 216.229 60.9792 216.062 61.3125C216.062 61.6458 215.938 61.875 215.688 62C215.438 62.125 215.312 62.3333 215.312 62.625C215.312 62.75 215.333 62.8958 215.375 63.0625C215.375 63.1875 215.312 63.3125 215.188 63.4375C215.396 63.6458 215.646 63.7708 215.938 63.8125C216.229 63.8542 216.479 63.9792 216.688 64.1875C216.896 64.3125 217.021 64.5 217.062 64.75C217.104 64.9583 217.188 65.1458 217.312 65.3125C217.396 65.4792 217.521 65.6042 217.688 65.6875C217.854 65.7708 217.979 65.8958 218.062 66.0625C218.229 66.2708 218.354 66.5 218.438 66.75C218.521 67 218.646 67.1875 218.812 67.3125C219.688 68.0208 220.5 68.7083 221.25 69.375C222.417 70.4583 223.521 71.5208 224.562 72.5625C225.646 73.6042 226.792 74.625 228 75.625C228.333 75.9167 228.5 76.3542 228.5 76.9375C228.5 77.2292 228.417 77.6042 228.25 78.0625C228.083 78.4792 227.896 78.9375 227.688 79.4375C227.479 79.9375 227.25 80.4167 227 80.875C226.75 81.3333 226.562 81.7083 226.438 82C226.271 82.3333 226.083 82.6458 225.875 82.9375C225.708 83.2292 225.562 83.5417 225.438 83.875C224.979 84.875 224.5 85.875 224 86.875C223.5 87.8333 223.104 88.8542 222.812 89.9375C222.979 90.0208 223.104 90.1667 223.188 90.375C223.271 90.5833 223.562 90.8125 224.062 91.0625C224.271 91.1875 224.396 91.3125 224.438 91.4375C224.479 91.6042 224.646 91.6875 224.938 91.6875C225.062 91.6875 225.188 91.6667 225.312 91.625L225.688 91.5C225.854 91.5833 225.979 91.7083 226.062 91.875C226.188 92.0417 226.354 92.125 226.562 92.125C226.646 92.125 226.75 92.1042 226.875 92.0625C227.042 92.0208 227.167 92.0208 227.25 92.0625C227.417 92.1458 227.542 92.25 227.625 92.375C227.708 92.5 227.812 92.5625 227.938 92.5625C228.271 92.5625 228.708 92.375 229.25 92C229.833 91.6667 230.312 91.4375 230.688 91.3125C230.896 90.5625 231.167 89.8333 231.5 89.125C231.875 88.4167 232.167 87.6875 232.375 86.9375C232.708 86.8125 232.896 86.6042 232.938 86.3125C233.021 86.0208 233.104 85.7708 233.188 85.5625C233.312 85.2292 233.458 84.8958 233.625 84.5625C233.833 84.2292 234 83.8958 234.125 83.5625C234.292 83.2292 234.417 82.875 234.5 82.5C234.625 82.0833 234.771 81.7292 234.938 81.4375C235.021 81.2708 235.125 81.1458 235.25 81.0625C235.417 80.9792 235.542 80.875 235.625 80.75C235.833 80.4167 235.958 80.0417 236 79.625C236.083 79.2083 236.229 78.7917 236.438 78.375C236.646 77.9167 236.833 77.5417 237 77.25C237.208 76.9167 237.312 76.4167 237.312 75.75C237.229 75.5833 237.146 75.4375 237.062 75.3125C237.021 75.1875 236.958 75.0625 236.875 74.9375C236.958 74.2292 236.896 73.4792 236.688 72.6875C236.479 71.8958 236.021 71.3958 235.312 71.1875C234.562 70.2292 233.708 69.3958 232.75 68.6875C231.792 67.9792 230.875 67.2292 230 66.4375C229.542 65.9792 229.083 65.5625 228.625 65.1875C228.208 64.8125 227.771 64.4375 227.312 64.0625L226.688 63.4375C226.521 63.2292 226.333 63.0208 226.125 62.8125C226 62.6875 225.729 62.5 225.312 62.25C224.938 62 224.75 61.7917 224.75 61.625C224.75 61.4583 224.917 61.0625 225.25 60.4375C225.583 59.8125 225.958 59.1667 226.375 58.5C226.833 57.7917 227.271 57.125 227.688 56.5C228.104 55.875 228.375 55.4583 228.5 55.25C228.708 54.9583 228.875 54.6875 229 54.4375L229.375 53.5625L230.375 52.0625C230.75 51.5208 231.125 50.8333 231.5 50C232.042 49.625 232.438 49.0833 232.688 48.375Z" fill="white"/>
</svg>
