<svg version="1.1" xmlns="http://www.w3.org/2000/svg" viewBox="0 0 362.9799041748047 262.4000244140625" width="362.9799041748047" height="262.4000244140625">
  <!-- svg-source:excalidraw -->
  
  <defs>
    <style class="style-fonts">
      @font-face {
        font-family: "Virgil";
        src: url("https://unpkg.com/@excalidraw/excalidraw@undefined/dist/excalidraw-assets/Virgil.woff2");
      }
      @font-face {
        font-family: "Cascadia";
        src: url("https://unpkg.com/@excalidraw/excalidraw@undefined/dist/excalidraw-assets/Cascadia.woff2");
      }
      @font-face {
        font-family: "Assistant";
        src: url("https://unpkg.com/@excalidraw/excalidraw@undefined/dist/excalidraw-assets/Assistant-Regular.woff2");
      }
    </style>
    
  </defs>
  <rect x="0" y="0" width="362.9799041748047" height="262.4000244140625" fill="#ffffff"/><g stroke-linecap="round" transform="translate(158 10) rotate(0 23.60003662109375 22)"><path d="M23.48 -0.5 C28.3 -0.77, 34.8 1.63, 38.75 4.79 C42.7 7.95, 46.32 13.72, 47.17 18.46 C48.01 23.2, 46.43 29.24, 43.81 33.23 C41.2 37.23, 36.2 40.88, 31.49 42.43 C26.77 43.98, 20.27 44.08, 15.55 42.54 C10.82 41, 5.71 37.2, 3.13 33.19 C0.56 29.18, -0.75 23.06, 0.07 18.48 C0.89 13.9, 3.93 8.7, 8.04 5.71 C12.14 2.71, 21.68 1.43, 24.71 0.5 C27.73 -0.43, 26.15 -0.23, 26.17 0.14 M22.3 0.18 C27.11 -0.29, 33.77 1.33, 37.84 4.06 C41.91 6.79, 45.7 11.88, 46.7 16.57 C47.71 21.27, 46.08 27.81, 43.86 32.22 C41.64 36.63, 38.07 41.33, 33.41 43.03 C28.74 44.74, 20.75 44.04, 15.85 42.45 C10.95 40.85, 6.7 37.38, 4.02 33.45 C1.34 29.52, -0.93 23.56, -0.25 18.84 C0.42 14.13, 4.25 8.28, 8.08 5.13 C11.9 1.98, 20.18 0.72, 22.72 -0.07 C25.25 -0.86, 23.37 -0.01, 23.29 0.38" stroke="#1e1e1e" stroke-width="2" fill="none"/></g><g stroke-linecap="round"><g transform="translate(162 50.80000305175781) rotate(0 -12.39996337890625 19.20001220703125)"><path d="M0.43 -1.06 C-3.77 5.38, -21.14 32.37, -25.28 38.76 M-0.8 1 C-5.2 7.05, -22.45 30.66, -26.49 36.83" stroke="#1e1e1e" stroke-width="2" fill="none"/></g></g><mask/><g stroke-linecap="round"><g transform="translate(199.5999755859375 46.80000305175781) rotate(0 12.4000244140625 22)"><path d="M0.41 0.39 C4.47 7.94, 21.18 37.32, 25.31 44.46 M-0.83 -0.45 C3.02 6.81, 20.38 35.15, 24.63 42.59" stroke="#1e1e1e" stroke-width="2" fill="none"/></g></g><mask/><g stroke-linecap="round" transform="translate(93.9998779296875 82.80000305175781) rotate(0 24 25.599998474121094)"><path d="M22.04 0.29 C26.74 -0.64, 32.43 1.16, 36.49 4.24 C40.55 7.32, 44.88 13.55, 46.4 18.76 C47.92 23.98, 47.66 30.65, 45.62 35.52 C43.59 40.39, 38.84 45.55, 34.19 47.97 C29.55 50.38, 22.49 51.23, 17.75 50 C13.02 48.78, 8.79 45.09, 5.78 40.63 C2.77 36.17, -0.42 28.78, -0.32 23.24 C-0.21 17.7, 2.4 11.3, 6.41 7.4 C10.42 3.49, 20.42 1.02, 23.75 -0.2 C27.07 -1.43, 26.37 -0.3, 26.36 0.02 M23.65 -1.35 C28.33 -1.67, 35.24 3.3, 39.14 6.96 C43.04 10.62, 46.21 15.59, 47.05 20.62 C47.89 25.66, 46.5 32.41, 44.17 37.16 C41.83 41.92, 37.88 46.93, 33.03 49.15 C28.18 51.36, 19.9 52.53, 15.06 50.47 C10.22 48.4, 6.32 41.86, 4 36.76 C1.68 31.66, 0.34 25.1, 1.15 19.84 C1.95 14.58, 5.08 8.56, 8.83 5.21 C12.57 1.86, 21.08 0.48, 23.62 -0.27 C26.15 -1.01, 23.95 0.11, 24.04 0.73" stroke="#1e1e1e" stroke-width="2" fill="none"/></g><g stroke-linecap="round" transform="translate(213.2000732421875 88.39999389648438) rotate(0 22.79998779296875 21.99999237060547)"><path d="M22.51 0.45 C27.1 0.12, 32.61 2.21, 36.44 5.1 C40.27 7.99, 44.34 13.31, 45.48 17.8 C46.62 22.3, 45.69 27.94, 43.3 32.06 C40.91 36.18, 35.82 40.68, 31.15 42.52 C26.48 44.37, 19.84 44.61, 15.3 43.12 C10.75 41.63, 6.36 37.55, 3.88 33.59 C1.41 29.62, -0.18 23.97, 0.45 19.35 C1.09 14.73, 4.08 9.06, 7.69 5.86 C11.3 2.67, 19.6 1.14, 22.13 0.19 C24.66 -0.75, 22.85 -0.13, 22.88 0.19 M23.68 -0.3 C28.16 -0.31, 34.54 2.71, 38.13 6 C41.72 9.29, 44.58 14.8, 45.23 19.42 C45.87 24.05, 44.74 29.67, 42.02 33.75 C39.3 37.82, 33.61 42.59, 28.92 43.88 C24.22 45.17, 18.37 43.62, 13.84 41.46 C9.31 39.3, 3.93 34.97, 1.72 30.91 C-0.49 26.85, -0.78 21.64, 0.56 17.1 C1.91 12.56, 5.74 6.5, 9.77 3.68 C13.8 0.86, 22.32 0.67, 24.73 0.2 C27.13 -0.28, 24.28 0.56, 24.22 0.82" stroke="#1e1e1e" stroke-width="2" fill="none"/></g><g stroke-linecap="round"><g transform="translate(102 128.39999389648438) rotate(0 -22.39996337890625 30.400009155273438)"><path d="M0.35 0.76 C-7.18 10.6, -37.61 49.88, -45.02 59.75 M-0.93 0.12 C-8.64 10.01, -38.82 50.61, -46.08 60.73" stroke="#1e1e1e" stroke-width="2" fill="none"/></g></g><mask/><g stroke-linecap="round"><g transform="translate(126 130) rotate(0 12 30.800003051757812)"><path d="M-0.09 -0.04 C4.26 10.35, 21.17 51.81, 25.19 62.24 M-1.59 -1.1 C2.78 8.94, 20.72 50.16, 24.87 60.45" stroke="#1e1e1e" stroke-width="2" fill="none"/></g></g><mask/><g stroke-linecap="round"><g transform="translate(227.5999755859375 132.39999389648438) rotate(0 -16.39996337890625 30)"><path d="M-0.99 0.01 C-6.73 10.29, -28.48 50.57, -33.78 60.69 M0.69 -1.04 C-4.74 8.99, -25.87 48.97, -31.59 58.92" stroke="#1e1e1e" stroke-width="2" fill="none"/></g></g><mask/><g stroke-linecap="round"><g transform="translate(254.800048828125 123.60000610351562) rotate(0 21.5999755859375 29.199996948242188)"><path d="M-0.19 0.25 C6.77 9.87, 35.87 48.55, 42.91 58.07 M-1.75 -0.66 C4.93 9.1, 34.12 49.63, 41.8 59.44" stroke="#1e1e1e" stroke-width="2" fill="none"/></g></g><mask/><g stroke-linecap="round" transform="translate(10 185.19998168945312) rotate(0 26.39996337890625 27.20001220703125)"><path d="M18.76 0.72 C23.83 -1.36, 31.04 -0.87, 36.38 1.69 C41.73 4.24, 48.27 10.69, 50.84 16.07 C53.41 21.44, 53.3 28.35, 51.82 33.93 C50.35 39.52, 46.46 46.17, 42 49.59 C37.54 53.01, 30.71 55.01, 25.06 54.46 C19.41 53.92, 12.36 50.53, 8.1 46.31 C3.84 42.08, 0.19 34.96, -0.5 29.13 C-1.19 23.3, 0.59 16.09, 3.96 11.34 C7.32 6.59, 16.6 2.2, 19.69 0.61 C22.78 -0.98, 22.26 1.28, 22.5 1.8 M30.95 1.7 C36 2.42, 41.24 5.82, 44.75 9.97 C48.26 14.12, 51.63 20.76, 51.99 26.63 C52.36 32.5, 50.23 40.81, 46.94 45.19 C43.65 49.58, 37.66 51.76, 32.25 52.95 C26.84 54.14, 19.53 54.98, 14.49 52.32 C9.46 49.65, 4.3 42.74, 2.03 36.96 C-0.23 31.18, -1 22.94, 0.89 17.63 C2.78 12.32, 8.23 8.1, 13.39 5.09 C18.55 2.08, 29.18 0.23, 31.84 -0.43 C34.51 -1.09, 29.79 0.59, 29.38 1.11" stroke="#1e1e1e" stroke-width="2" fill="none"/></g><g stroke-linecap="round" transform="translate(117.199951171875 190) rotate(0 28.79998779296875 31.20001220703125)"><path d="M17.48 3.12 C22.76 0.09, 30.28 -0.43, 36.15 1.45 C42.03 3.33, 49.2 9, 52.74 14.4 C56.29 19.8, 57.9 27.42, 57.43 33.85 C56.95 40.29, 54.11 48.36, 49.88 53.04 C45.65 57.71, 38.21 61.2, 32.05 61.88 C25.9 62.56, 18.23 60.92, 12.95 57.09 C7.67 53.27, 1.96 45.48, 0.37 38.94 C-1.21 32.41, -0.2 24.07, 3.45 17.87 C7.09 11.66, 18.48 4.46, 22.26 1.72 C26.04 -1.03, 26.06 1.15, 26.14 1.39 M43.15 4.33 C48.64 6.82, 52.72 13.29, 55.11 19.27 C57.49 25.25, 59.46 33.67, 57.45 40.22 C55.44 46.78, 48.29 54.84, 43.05 58.6 C37.81 62.36, 32.21 63.68, 26 62.78 C19.79 61.87, 10.07 58.27, 5.77 53.18 C1.48 48.09, 0.25 39.34, 0.2 32.25 C0.16 25.16, 1.71 15.86, 5.49 10.64 C9.26 5.42, 16.82 2.1, 22.86 0.91 C28.91 -0.28, 38.34 2.85, 41.77 3.53 C45.2 4.21, 43.47 4.63, 43.45 4.99" stroke="#1e1e1e" stroke-width="2" fill="none"/></g><g stroke-linecap="round" transform="translate(265.99993896484375 184.39996337890625) rotate(0 28.79998779296875 31.20001220703125)"><path d="M26.31 -0.17 C32.16 -1.48, 39.1 0.85, 44.24 4.47 C49.39 8.1, 55.48 15.07, 57.18 21.57 C58.88 28.07, 57.05 37.23, 54.45 43.49 C51.85 49.76, 47.04 56.15, 41.56 59.14 C36.08 62.12, 27.7 62.86, 21.58 61.41 C15.46 59.96, 8.39 55.85, 4.82 50.44 C1.25 45.03, -0.39 35.78, 0.17 28.95 C0.73 22.12, 3.74 14.2, 8.19 9.46 C12.65 4.73, 23.42 2.08, 26.9 0.56 C30.38 -0.95, 28.86 -0.22, 29.06 0.38 M28.85 -0.65 C34.44 -1.08, 42.58 3.33, 47.38 7.81 C52.18 12.3, 56.43 19.56, 57.64 26.24 C58.86 32.92, 57.81 42.35, 54.66 47.9 C51.51 53.46, 44.95 57.47, 38.76 59.58 C32.56 61.7, 23.36 62.91, 17.47 60.6 C11.58 58.29, 6.21 51.58, 3.43 45.73 C0.64 39.88, -0.7 32.1, 0.78 25.51 C2.25 18.92, 7.5 10.51, 12.27 6.17 C17.03 1.82, 26.5 0.41, 29.36 -0.56 C32.22 -1.53, 29.58 -0.4, 29.45 0.35" stroke="#1e1e1e" stroke-width="2" fill="none"/></g><g stroke-linecap="round" transform="translate(185.20001220703125 187.5999755859375) rotate(0 28.79998779296875 31.20001220703125)"><path d="M19.3 0.72 C24.87 -1.66, 33.77 -0.15, 39.61 2.49 C45.44 5.14, 51.46 10.78, 54.33 16.59 C57.2 22.4, 58.01 30.77, 56.81 37.36 C55.6 43.95, 52 51.94, 47.08 56.14 C42.15 60.33, 33.6 62.88, 27.27 62.52 C20.95 62.16, 13.56 58.42, 9.14 53.98 C4.72 49.53, 1.54 42.3, 0.74 35.85 C-0.07 29.39, 0.34 21.11, 4.33 15.22 C8.32 9.34, 20.73 2.84, 24.67 0.55 C28.6 -1.73, 28.1 1.07, 27.94 1.5 M22.99 1.89 C28.75 0.41, 37.95 1.95, 43.2 4.87 C48.45 7.8, 52.3 13.35, 54.5 19.45 C56.7 25.55, 58.27 35, 56.39 41.46 C54.52 47.92, 48.51 54.55, 43.24 58.2 C37.97 61.84, 30.92 64.48, 24.79 63.33 C18.65 62.18, 10.65 56.61, 6.42 51.29 C2.19 45.98, -0.54 38.24, -0.57 31.44 C-0.6 24.64, 2.08 15.49, 6.22 10.5 C10.35 5.5, 21.43 3.03, 24.24 1.49 C27.06 -0.05, 23.05 0.68, 23.13 1.25" stroke="#1e1e1e" stroke-width="2" fill="none"/></g><g transform="translate(246 27.600006103515625) rotate(0 53.489952087402344 25)"><text x="0" y="0" font-family="Virgil, Segoe UI Emoji" font-size="20px" fill="#1e1e1e" text-anchor="start" style="white-space: pre;" direction="ltr" dominant-baseline="text-before-edge">binary tree</text><text x="0" y="25" font-family="Virgil, Segoe UI Emoji" font-size="20px" fill="#1e1e1e" text-anchor="start" style="white-space: pre;" direction="ltr" dominant-baseline="text-before-edge"/></g></svg>